REM Ripping Tool: trurip

FILE "Tadaima Yuusha Boshuuchuu (1993)(Human)(JP).img" BINARY
  TRACK 01 AUDIO
    INDEX 01 00:00:00
  TRACK 02 MODE1/2352
    INDEX 00 00:44:65
    INDEX 01 00:47:65
  TRACK 03 AUDIO
    INDEX 00 07:50:27
    INDEX 01 07:52:27
  TRACK 04 AUDIO
    INDEX 01 08:46:67
  TRACK 05 AUDIO
    INDEX 01 09:34:20
  TRACK 06 AUDIO
    INDEX 01 10:32:52
  TRACK 07 AUDIO
    INDEX 01 11:50:26
  TRACK 08 AUDIO
    INDEX 01 12:55:63
  TRACK 09 AUDIO
    INDEX 01 17:01:73
  TRACK 10 MODE1/2352
    INDEX 00 21:23:05
    INDEX 01 21:26:05

REM DISC HASHES
REM CRC32 : 404d654e
REM MD5   : 131dcbb604d6b6b53b0c56afc9007c6e
REM SHA1  : aa4d1d2d715108c110b103b99082d409d7b9db34

REM Gap Append Method: Prev [crc32]
REM Trk 01: 22bd339e
REM Trk 02: 5794c5df
REM Trk 03: 61fab32a
REM Trk 04: 0bee9c0f
REM Trk 05: d0a517b1
REM Trk 06: f8494532
REM Trk 07: 7e46228e
REM Trk 08: 921aed40
REM Trk 09: b22859bd
REM Trk 10: 55fc7618

REM Gap Append Method: Prev [md5]
REM Trk 01: b6cc882e7e72c5acbe836956698019cc
REM Trk 02: 841e9ef5f677b3207b6e4a49a95a6818
REM Trk 03: ddc909201c6f37ec46f06278ea3c35a3
REM Trk 04: 5a656ec39cede04f7826bc3a6eb4a004
REM Trk 05: 584315521496e6e07634746d40d5b144
REM Trk 06: ad28602a6d4048f986174074eee189a9
REM Trk 07: eaab0a2164e8e57e0f95674ade296f12
REM Trk 08: 7eb4108e93e217603c98d3f1e6ad5806
REM Trk 09: 3762ae088c95f97cb1b2036e3751c1ab
REM Trk 10: ba294897d5d8f9306abd363801ffe535

REM Gap Append Method: Prev [sha1]
REM Trk 01: 08657108662cb72397a023950be2b2d83c44b0bd
REM Trk 02: ac1ca2c418d06b289d92027b05714bd897e23ae5
REM Trk 03: 2f8924d95cf1e6c4398c06f0684ee2489c5fdcb3
REM Trk 04: b146eb34fd81739b7abfc31e1f99acae55057b6d
REM Trk 05: 97804041a1a5975abbbab39966d96c50567fc201
REM Trk 06: 0bac46df69104e999c6b07e231d96792d5c753e1
REM Trk 07: 06e8272dcc57afeeb0ffa6c425bf44ab988bcdb6
REM Trk 08: 85dac30970f15d24c77b259f8798c4f0bc58803d
REM Trk 09: 837cc47f8d360f0aa8c632c83aae3b574d82a836
REM Trk 10: 9df017e9e16c4163b4aa87a944d92bcc9c4725ed

REM Gap Append Method: None [crc32]
REM Trk 01: ac237896
REM Trk 02: 72bb368b
REM Trk 03: 61fab32a
REM Trk 04: 0bee9c0f
REM Trk 05: d0a517b1
REM Trk 06: f8494532
REM Trk 07: 7e46228e
REM Trk 08: 921aed40
REM Trk 09: 813667d9
REM Trk 10: 55fc7618
REM Gap 02: 58fd8bb2
REM Gap 03: 7abe247f
REM Gap 10: 70890565

REM Gap Append Method: None [md5]
REM Trk 01: acc4537f83d6ee407e5923b992c0ed05
REM Trk 02: 458f70c65b929016bb0f49ec77129634
REM Trk 03: ddc909201c6f37ec46f06278ea3c35a3
REM Trk 04: 5a656ec39cede04f7826bc3a6eb4a004
REM Trk 05: 584315521496e6e07634746d40d5b144
REM Trk 06: ad28602a6d4048f986174074eee189a9
REM Trk 07: eaab0a2164e8e57e0f95674ade296f12
REM Trk 08: 7eb4108e93e217603c98d3f1e6ad5806
REM Trk 09: 109518b8d5d346c8ab3789a642115478
REM Trk 10: ba294897d5d8f9306abd363801ffe535
REM Gap 02: ac56fd9130812a6df37b0b2d2a561658
REM Gap 03: 9df204fbc98bb8965081cb30a89715fc
REM Gap 10: 2b8b748180f67fcfbb73b2c7effbba54

REM Gap Append Method: None [sha1]
REM Trk 01: f856d5f1fd53112476639dd95f676360644f65f6
REM Trk 02: 77aa0fc6f593170b39e9ffe72c99e47ef8cdda43
REM Trk 03: 2f8924d95cf1e6c4398c06f0684ee2489c5fdcb3
REM Trk 04: b146eb34fd81739b7abfc31e1f99acae55057b6d
REM Trk 05: 97804041a1a5975abbbab39966d96c50567fc201
REM Trk 06: 0bac46df69104e999c6b07e231d96792d5c753e1
REM Trk 07: 06e8272dcc57afeeb0ffa6c425bf44ab988bcdb6
REM Trk 08: 85dac30970f15d24c77b259f8798c4f0bc58803d
REM Trk 09: c101e23b33b201270666909339eb7ea765a489db
REM Trk 10: 9df017e9e16c4163b4aa87a944d92bcc9c4725ed
REM Gap 02: 0540dd90a939e1b62025f5148a11224f38c7b903
REM Gap 03: cbe29e0bd725ef1194f8c47619dd42078e841de2
REM Gap 10: dcae4e7775889242d7ae40af0858036472adb882

REM Gap Append Method: Next [crc32]
REM Trk 01: ac237896
REM Trk 02: 07f7d1f9
REM Trk 03: cb21c999
REM Trk 04: 0bee9c0f
REM Trk 05: d0a517b1
REM Trk 06: f8494532
REM Trk 07: 7e46228e
REM Trk 08: 921aed40
REM Trk 09: 813667d9
REM Trk 10: 01a59ea3

REM Gap Append Method: Next [md5]
REM Trk 01: acc4537f83d6ee407e5923b992c0ed05
REM Trk 02: 6c0b6937b8a493efc3cabacddb941526
REM Trk 03: 8f3e346ef850f9f13dd3b9dabe3bf661
REM Trk 04: 5a656ec39cede04f7826bc3a6eb4a004
REM Trk 05: 584315521496e6e07634746d40d5b144
REM Trk 06: ad28602a6d4048f986174074eee189a9
REM Trk 07: eaab0a2164e8e57e0f95674ade296f12
REM Trk 08: 7eb4108e93e217603c98d3f1e6ad5806
REM Trk 09: 109518b8d5d346c8ab3789a642115478
REM Trk 10: ee46af243a16285cae3e38e4c4842834

REM Gap Append Method: Next [sha1]
REM Trk 01: f856d5f1fd53112476639dd95f676360644f65f6
REM Trk 02: 359dd1899c9704531d8616a3dc1021ed7c546460
REM Trk 03: 17336d272024866abf2eac90e7707605631b49dd
REM Trk 04: b146eb34fd81739b7abfc31e1f99acae55057b6d
REM Trk 05: 97804041a1a5975abbbab39966d96c50567fc201
REM Trk 06: 0bac46df69104e999c6b07e231d96792d5c753e1
REM Trk 07: 06e8272dcc57afeeb0ffa6c425bf44ab988bcdb6
REM Trk 08: 85dac30970f15d24c77b259f8798c4f0bc58803d
REM Trk 09: c101e23b33b201270666909339eb7ea765a489db
REM Trk 10: e7b7983a7d52fd05d610002edff4104cad3074d9

